<svg width="46" height="46" viewBox="0 0 46 46" fill="none" xmlns="http://www.w3.org/2000/svg">
<path d="M43.6501 15.7044C43.6501 17.8128 41.9251 19.5378 39.8167 19.5378C39.4717 19.5378 39.1459 19.4994 38.8392 19.4036L32.0159 26.2078C32.1117 26.5144 32.1501 26.8594 32.1501 27.2044C32.1501 29.3128 30.4251 31.0378 28.3167 31.0378C26.2084 31.0378 24.4834 29.3128 24.4834 27.2044C24.4834 26.8594 24.5217 26.5144 24.6176 26.2078L19.7301 21.3203C19.4234 21.4161 19.0784 21.4544 18.7334 21.4544C18.3884 21.4544 18.0434 21.4161 17.7367 21.3203L9.0159 30.0603C9.11173 30.3669 9.15006 30.6928 9.15006 31.0378C9.15006 33.1461 7.42506 34.8711 5.31673 34.8711C3.2084 34.8711 1.4834 33.1461 1.4834 31.0378C1.4834 28.9294 3.2084 27.2044 5.31673 27.2044C5.66173 27.2044 5.98756 27.2428 6.29423 27.3386L15.0342 18.6178C14.9384 18.3111 14.9001 17.9661 14.9001 17.6211C14.9001 15.5128 16.6251 13.7878 18.7334 13.7878C20.8417 13.7878 22.5667 15.5128 22.5667 17.6211C22.5667 17.9661 22.5284 18.3111 22.4326 18.6178L27.3201 23.5053C27.6267 23.4094 27.9717 23.3711 28.3167 23.3711C28.6617 23.3711 29.0067 23.4094 29.3134 23.5053L36.1176 16.6819C36.0217 16.3753 35.9834 16.0494 35.9834 15.7044C35.9834 13.5961 37.7084 11.8711 39.8167 11.8711C41.9251 11.8711 43.6501 13.5961 43.6501 15.7044Z" fill="#EB5353"/>
</svg>
