<svg width="21" height="21" viewBox="0 0 21 21" fill="none" xmlns="http://www.w3.org/2000/svg">
<path d="M10.7452 9.67349C9.11753 9.25043 8.59408 8.81303 8.59408 8.13183C8.59408 7.35024 9.3183 6.80529 10.5301 6.80529C11.8065 6.80529 12.2797 7.41478 12.3227 8.31109H13.9074C13.8572 7.07776 13.1043 5.94483 11.6057 5.57913V4.00879H9.45454V5.55762C8.06346 5.85878 6.94486 6.76226 6.94486 8.14617C6.94486 9.80256 8.31443 10.6272 10.315 11.1076C12.1076 11.5378 12.4662 12.1688 12.4662 12.8357C12.4662 13.3304 12.1148 14.1192 10.5301 14.1192C9.05299 14.1192 8.47218 13.4595 8.39331 12.6134H6.8158C6.90184 14.1837 8.0778 15.0657 9.45454 15.3597V16.9157H11.6057V15.374C13.0039 15.1087 14.1154 14.2985 14.1154 12.8285C14.1154 10.7921 12.3729 10.0965 10.7452 9.67349Z" fill="#EB5353"/>
</svg>
