<svg width="46" height="46" viewBox="0 0 46 46" fill="none" xmlns="http://www.w3.org/2000/svg">
<path d="M24.9163 3.9292V9.7367C31.4138 10.6759 36.4163 16.2342 36.4163 23C36.4163 24.725 36.0713 26.3542 35.4963 27.8684L40.4797 30.8009C41.553 28.4242 42.1663 25.7792 42.1663 23C42.1663 13.0717 34.5955 4.88753 24.9163 3.9292ZM22.9997 36.4167C15.5822 36.4167 9.58301 30.4175 9.58301 23C9.58301 16.2342 14.5855 10.6759 21.083 9.7367V3.9292C11.3847 4.88753 3.83301 13.0525 3.83301 23C3.83301 33.58 12.4005 42.1667 22.9805 42.1667C29.3247 42.1667 34.9405 39.0809 38.4288 34.3275L33.4455 31.395C30.9922 34.4617 27.2355 36.4167 22.9997 36.4167Z" fill="#EB5353"/>
</svg>
