<svg width="24" height="24" viewBox="0 0 24 24" fill="none" xmlns="http://www.w3.org/2000/svg">
<path d="M4.17391 2.08691C3.48204 2.08691 2.81851 2.33771 2.32929 2.78413C1.84006 3.23055 1.56522 3.83602 1.56522 4.46735V15.5713C1.56522 16.2026 1.84006 16.8081 2.32929 17.2545C2.81851 17.7009 3.48204 17.9517 4.17391 17.9517H8.52174V19.5434H5.90609C5.67546 19.5434 5.45429 19.627 5.29121 19.7758C5.12813 19.9246 5.03652 20.1265 5.03652 20.3369C5.03652 20.5474 5.12813 20.7492 5.29121 20.898C5.45429 21.0468 5.67546 21.1304 5.90609 21.1304H18.087C18.3176 21.1304 18.5388 21.0468 18.7018 20.898C18.8649 20.7492 18.9565 20.5474 18.9565 20.3369C18.9565 20.1265 18.8649 19.9246 18.7018 19.7758C18.5388 19.627 18.3176 19.5434 18.087 19.5434H15.4783V17.9517H19.8261C20.518 17.9517 21.1815 17.7009 21.6707 17.2545C22.1599 16.8081 22.4348 16.2026 22.4348 15.5713V4.46735C22.4348 3.83602 22.1599 3.23055 21.6707 2.78413C21.1815 2.33771 20.518 2.08691 19.8261 2.08691H4.17391ZM13.7391 17.9517V19.5434H10.2609V17.9517H13.7391Z" fill="#EB5353"/>
<path d="M15.17 8.79742L12.9708 8.4778L11.9877 6.48475C11.9609 6.43018 11.9167 6.386 11.8621 6.35915C11.7253 6.29159 11.559 6.34789 11.4905 6.48475L10.5074 8.4778L8.30824 8.79742C8.24761 8.80608 8.19217 8.83466 8.14973 8.87797C8.09842 8.93071 8.07014 9.00166 8.07112 9.07524C8.07209 9.14881 8.10224 9.21899 8.15493 9.27035L9.74608 10.8217L9.37016 13.0122C9.36135 13.0632 9.36698 13.1156 9.38644 13.1635C9.40589 13.2114 9.43838 13.2529 9.48022 13.2833C9.52207 13.3137 9.57159 13.3317 9.62317 13.3354C9.67475 13.3391 9.72633 13.3282 9.77206 13.3041L11.7391 12.2699L13.7062 13.3041C13.7599 13.3327 13.8223 13.3422 13.882 13.3318C14.0327 13.3058 14.1341 13.1629 14.1081 13.0122L13.7322 10.8217L15.3233 9.27035C15.3666 9.2279 15.3952 9.17247 15.4039 9.11184C15.4273 8.96026 15.3216 8.81994 15.17 8.79742Z" fill="white"/>
</svg>
