<svg width="24" height="24" viewBox="0 0 24 24" fill="none" xmlns="http://www.w3.org/2000/svg">
<path d="M16.4998 3C14.7598 3 13.0898 3.81 11.9998 5.09C10.9098 3.81 9.23982 3 7.49982 3C4.41982 3 1.99982 5.42 1.99982 8.5C1.99982 12.28 5.39982 15.36 10.5498 20.04L11.9998 21.35L13.4498 20.03C18.5998 15.36 21.9998 12.28 21.9998 8.5C21.9998 5.42 19.5798 3 16.4998 3ZM12.0998 18.55L11.9998 18.65L11.8998 18.55C7.13982 14.24 3.99982 11.39 3.99982 8.5C3.99982 6.5 5.49982 5 7.49982 5C9.03982 5 10.5398 5.99 11.0698 7.36H12.9398C13.4598 5.99 14.9598 5 16.4998 5C18.4998 5 19.9998 6.5 19.9998 8.5C19.9998 11.39 16.8598 14.24 12.0998 18.55Z" fill="#EB5353"/>
</svg>
