<svg width="25" height="25" viewBox="0 0 25 25" fill="none" xmlns="http://www.w3.org/2000/svg">
<path d="M12.0892 4.23218C8.05368 4.23218 4.77533 7.51053 4.77533 11.5461C4.77533 15.5816 8.05368 18.86 12.0892 18.86H12.5195V21.4414C16.7013 19.4279 19.4032 15.4182 19.4032 11.5461C19.4032 7.51053 16.1248 4.23218 12.0892 4.23218ZM12.9497 16.7089H11.2288V14.9879H12.9497V16.7089ZM12.9497 13.6972H11.2288C11.2288 10.9007 13.8102 11.1159 13.8102 9.39494C13.8102 8.44843 13.0358 7.67402 12.0892 7.67402C11.1427 7.67402 10.3683 8.44843 10.3683 9.39494H8.6474C8.6474 7.49332 10.1876 5.9531 12.0892 5.9531C13.9909 5.9531 15.5311 7.49332 15.5311 9.39494C15.5311 11.5461 12.9497 11.7612 12.9497 13.6972Z" fill="#EB5353"/>
</svg>
