<svg width="24" height="24" viewBox="0 0 24 24" fill="none" xmlns="http://www.w3.org/2000/svg">
<path d="M19.1399 12.9359C19.1759 12.6359 19.1999 12.3239 19.1999 11.9999C19.1999 11.6759 19.1759 11.3639 19.1279 11.0639L21.1559 9.4799C21.3359 9.3359 21.3839 9.0719 21.2759 8.8679L19.3559 5.5439C19.2359 5.3279 18.9839 5.2559 18.7679 5.3279L16.3799 6.2879C15.8759 5.9039 15.3479 5.5919 14.7599 5.3519L14.3999 2.8079C14.3639 2.5679 14.1599 2.3999 13.9199 2.3999H10.0799C9.83989 2.3999 9.64789 2.5679 9.61189 2.8079L9.25189 5.3519C8.66389 5.5919 8.12389 5.9159 7.63189 6.2879L5.24389 5.3279C5.02789 5.2439 4.77589 5.3279 4.65589 5.5439L2.73589 8.8679C2.61589 9.0839 2.66389 9.3359 2.85589 9.4799L4.88389 11.0639C4.83589 11.3639 4.79989 11.6879 4.79989 11.9999C4.79989 12.3119 4.82389 12.6359 4.87189 12.9359L2.84389 14.5199C2.66389 14.6639 2.61589 14.9279 2.72389 15.1319L4.64389 18.4559C4.76389 18.6719 5.01589 18.7439 5.23189 18.6719L7.61989 17.7119C8.12389 18.0959 8.65189 18.4079 9.23989 18.6479L9.59989 21.1919C9.64789 21.4319 9.83989 21.5999 10.0799 21.5999H13.9199C14.1599 21.5999 14.3639 21.4319 14.3879 21.1919L14.7479 18.6479C15.3359 18.4079 15.8759 18.0839 16.3679 17.7119L18.7559 18.6719C18.9719 18.7559 19.2239 18.6719 19.3439 18.4559L21.2639 15.1319C21.3839 14.9159 21.3359 14.6639 21.1439 14.5199L19.1399 12.9359ZM11.9999 15.5999C10.0199 15.5999 8.39989 13.9799 8.39989 11.9999C8.39989 10.0199 10.0199 8.3999 11.9999 8.3999C13.9799 8.3999 15.5999 10.0199 15.5999 11.9999C15.5999 13.9799 13.9799 15.5999 11.9999 15.5999Z" fill="#EB5353"/>
</svg>
